<svg width="40" height="9" viewBox="0 0 40 9" fill="none" xmlns="http://www.w3.org/2000/svg">
<path d="M4 8.11572C6.20914 8.11572 8 6.29896 8 4.05786C8 1.81677 6.20914 0 4 0C1.79086 0 0 1.81677 0 4.05786C0 6.29896 1.79086 8.11572 4 8.11572Z" fill="black"/>
<path d="M20 8.11572C22.2091 8.11572 24 6.29896 24 4.05786C24 1.81677 22.2091 0 20 0C17.7909 0 16 1.81677 16 4.05786C16 6.29896 17.7909 8.11572 20 8.11572Z" fill="black"/>
<path d="M36 8.11572C38.2091 8.11572 40 6.29896 40 4.05786C40 1.81677 38.2091 0 36 0C33.7909 0 32 1.81677 32 4.05786C32 6.29896 33.7909 8.11572 36 8.11572Z" fill="black"/>
</svg>
